<?xml version="1.0" encoding="utf-8"?>
<!-- Generator: Adobe Illustrator 16.0.5, SVG Export Plug-In . SVG Version: 6.00 Build 0)  -->
<!DOCTYPE svg PUBLIC "-//W3C//DTD SVG 1.1//EN" "http://www.w3.org/Graphics/SVG/1.1/DTD/svg11.dtd">
<svg version="1.1" id="Layer_1" xmlns="http://www.w3.org/2000/svg" xmlns:xlink="http://www.w3.org/1999/xlink" x="0px" y="0px"
	 viewBox="0 0 612 792" enable-background="new 0 0 612 792" xml:space="preserve">
<text transform="matrix(1 0 0 1 0 351.4209)" fill="#346732" font-family="'Yellowtail'" font-size="104.5176">C</text>
<text transform="matrix(1 0 0 1 59.4028 351.4209)" fill="#509B4B" font-family="'Yellowtail'" font-size="104.5176">ommunity</text>
<text transform="matrix(1 0 0 1 391.4316 351.4209)" fill="#346732" font-family="'Yellowtail'" font-size="104.5176">S</text>
<text transform="matrix(1 0 0 1 461.2959 351.4209)" fill="#509B4B" font-family="'Yellowtail'" font-size="104.5176">ense</text>
<path fill="#FFFFFF" d="M344.167,291.75c-0.036,0.004-0.073,0.009-0.109,0.013c0.161-1.353-0.632-2.843-2.391-2.846
	c-3.889-0.007-7.689,1.203-11.179,2.841c-2.917,1.37-0.377,5.679,2.522,4.317c0.353-0.165,0.708-0.323,1.069-0.474
	c-0.509,0.47-0.99,0.988-1.431,1.574c-2.435,3.238-2.194,8.13,0.582,11.009c2.24,2.325,5.771-1.214,3.534-3.535
	c-1.48-1.537-0.697-3.969,0.583-5.381c1.134-1.248,2.974-1.874,4.745-2.216c0.106,0.012,0.207,0.032,0.321,0.032
	c0.441,0,0.816-0.1,1.138-0.262c0.207-0.026,0.415-0.052,0.612-0.072C347.343,296.426,347.374,291.423,344.167,291.75z"/>
<path fill="#346732" d="M547.283,307.488c-1.873-4.329-6.519-7.503-11.26-7.745c-5.798-0.295-10.316,2.859-13.916,7.114
	c-2.069,2.445,1.448,6,3.534,3.535c2.52-2.977,5.273-5.462,9.355-5.701c3.479-0.204,6.656,2.289,7.969,5.32
	C544.244,312.964,548.551,310.415,547.283,307.488z"/>
<path fill="none" stroke="#346732" stroke-miterlimit="10" d="M576.625,270"/>
<path fill="none" stroke="#346732" stroke-miterlimit="10" d="M546.847,310.308"/>
<path fill="#346732" d="M555.816,298.363c-3.122-4.329-10.867-7.503-18.772-7.745c-9.666-0.295-17.201,2.859-23.204,7.114
	c-3.45,2.445,2.417,6,5.896,3.535c4.198-2.977,8.793-5.462,15.599-5.701c5.802-0.204,11.099,2.289,13.286,5.32
	C550.749,303.839,557.931,301.29,555.816,298.363z"/>
<path fill="#346732" d="M567.297,288.613c-4.804-4.329-16.719-7.503-28.883-7.745c-14.87-0.295-26.462,2.859-35.696,7.114
	c-5.308,2.445,3.718,6,9.068,3.535c6.46-2.977,13.526-5.462,23.997-5.701c8.927-0.204,17.075,2.289,20.44,5.32
	C559.501,294.089,570.548,291.54,567.297,288.613z"/>
<path fill="#346732" d="M327.415,302.589c-8.89-2.877-14.201-12.127-8.882-20.578c1.724-2.737-2.604-5.244-4.316-2.523
	c-7.088,11.258,0.006,24.083,11.868,27.922C329.162,308.407,330.469,303.578,327.415,302.589z"/>
<path fill="#346732" d="M324.62,303.878c4.104-8.393,1.141-18.641-8.633-20.684c-3.166-0.662-1.963-5.516,1.183-4.857
	c13.021,2.721,17.32,16.732,11.842,27.934C327.591,309.176,323.209,306.761,324.62,303.878z"/>
</svg>
