<?xml version="1.0" standalone="no"?>
<!DOCTYPE svg PUBLIC "-//W3C//DTD SVG 20010904//EN"
 "http://www.w3.org/TR/2001/REC-SVG-20010904/DTD/svg10.dtd">
<svg version="1.0" xmlns="http://www.w3.org/2000/svg"
 width="162.000000pt" height="162.000000pt" viewBox="0 0 162.000000 162.000000"
 preserveAspectRatio="xMidYMid meet">
<metadata>
Created by potrace 1.11, written by Peter Selinger 2001-2013
</metadata>
<g transform="translate(0.000000,162.000000) scale(0.100000,-0.100000)"
fill="#000000" stroke="none">
<path d="M0 810 l0 -810 810 0 810 0 0 810 0 810 -810 0 -810 0 0 -810z m785
288 c44 -20 57 -84 29 -143 -22 -47 -48 -68 -74 -60 -38 12 -41 45 -8 86 40
50 37 93 -7 97 -110 9 -259 -215 -272 -409 -6 -84 6 -136 38 -165 20 -18 22
-18 72 9 29 15 77 47 107 72 58 48 70 53 70 31 0 -19 -114 -141 -157 -167 -43
-27 -99 -27 -152 0 -73 38 -100 94 -101 212 0 130 46 244 137 341 97 101 223
139 318 96z m500 -10 c33 -11 63 -25 67 -31 12 -19 9 -56 -7 -87 -18 -35 -35
-38 -60 -10 -48 53 -214 78 -285 42 -79 -39 -46 -78 146 -174 140 -70 170 -98
180 -169 12 -88 -30 -170 -107 -209 -132 -68 -419 42 -419 160 0 11 10 40 21
62 l21 42 19 -35 c26 -51 78 -93 146 -119 74 -28 175 -32 220 -7 36 19 66 67
57 91 -8 21 -68 58 -164 100 -187 82 -235 136 -208 235 33 122 193 168 373
109z"/>
</g>
</svg>
