<?xml version="1.0" standalone="no"?>
<!DOCTYPE svg PUBLIC "-//W3C//DTD SVG 20010904//EN"
 "http://www.w3.org/TR/2001/REC-SVG-20010904/DTD/svg10.dtd">
<svg version="1.0" xmlns="http://www.w3.org/2000/svg"
 width="1802.000000pt" height="1802.000000pt" viewBox="0 0 1802.000000 1802.000000"
 preserveAspectRatio="xMidYMid meet">
<metadata>
Created by potrace 1.11, written by Peter Selinger 2001-2013
</metadata>
<g transform="translate(0.000000,1802.000000) scale(0.100000,-0.100000)"
fill="#000000" stroke="none">
<path d="M0 9010 l0 -9010 9010 0 9010 0 0 9010 0 9010 -9010 0 -9010 0 0
-9010z m14630 4666 c268 -35 524 -109 723 -208 104 -52 133 -72 198 -137 107
-107 113 -130 106 -360 -6 -200 -19 -264 -74 -377 -31 -62 -53 -91 -119 -151
-104 -95 -150 -126 -249 -164 -214 -84 -511 -131 -1015 -164 -275 -18 -345
-27 -389 -49 -16 -9 -39 -16 -50 -16 -46 0 -86 108 -79 209 5 66 64 200 143
322 25 39 44 73 42 75 -11 12 -307 -32 -487 -72 -608 -133 -1381 -486 -1975
-902 -292 -205 -577 -443 -816 -681 -253 -253 -383 -417 -430 -540 -44 -118
-2 -268 105 -373 160 -158 500 -321 1021 -488 913 -295 1223 -413 1504 -574
661 -380 986 -738 1113 -1226 27 -100 31 -138 35 -290 9 -319 -51 -590 -194
-869 -285 -555 -869 -1067 -1668 -1461 -598 -295 -1239 -461 -2025 -526 -294
-24 -791 -24 -965 0 -541 75 -887 285 -1078 654 -69 134 -103 240 -118 374
-27 248 47 495 198 658 66 72 239 190 313 215 57 19 103 15 132 -12 24 -22 22
-45 -12 -133 -43 -108 -39 -137 27 -211 123 -136 446 -270 813 -336 135 -25
166 -27 440 -27 258 0 313 3 440 22 440 69 924 216 1340 407 559 257 1125 698
1290 1006 44 82 64 179 50 242 -34 161 -206 312 -510 447 -288 129 -731 282
-1260 436 -609 178 -888 283 -1172 440 -501 276 -784 626 -865 1068 -26 139
-23 414 6 580 37 211 94 385 192 581 222 443 616 883 1114 1245 1038 753 2319
1277 3345 1369 69 6 143 13 165 15 100 10 577 -3 695 -18z m-6418 -114 c180
-49 326 -131 467 -267 182 -175 262 -322 296 -545 44 -288 -22 -575 -228 -985
-176 -353 -384 -670 -646 -985 -114 -136 -427 -457 -562 -576 -316 -278 -628
-480 -819 -531 -93 -25 -226 -23 -315 5 -160 49 -330 207 -408 380 -38 85 -21
288 39 467 26 76 46 108 87 139 31 23 43 17 27 -14 -43 -80 100 -137 235 -94
203 63 626 429 984 849 108 127 315 406 390 527 138 219 201 371 208 498 5 83
-11 123 -61 155 -59 39 -242 28 -431 -26 -405 -113 -986 -443 -1530 -868 -306
-239 -712 -617 -1001 -932 -507 -553 -918 -1150 -1295 -1884 -363 -707 -568
-1324 -641 -1925 -20 -165 -17 -506 5 -609 68 -315 214 -492 462 -562 92 -26
283 -31 395 -10 311 57 699 233 1120 510 631 414 1729 1456 2050 1948 26 39
51 88 54 107 14 71 103 56 140 -23 19 -41 21 -63 20 -206 -1 -236 -66 -751
-110 -885 -131 -390 -720 -1088 -1319 -1564 -119 -95 -431 -305 -560 -378
-413 -234 -849 -392 -1260 -459 -187 -30 -517 -37 -640 -15 -332 63 -660 312
-921 702 -155 233 -259 506 -311 819 -25 149 -24 609 0 835 122 1108 594 2280
1355 3365 700 998 1560 1848 2396 2370 574 360 1162 592 1676 664 198 28 212
29 405 26 133 -2 187 -7 247 -23z"/>
</g>
</svg>
